<mxfile host="app.diagrams.net" modified="2022-12-01T12:07:19.169Z" agent="5.0 (Windows)" etag="BZtO0s7ufqbAbvs4-67R" version="20.6.0" type="github">
  <diagram id="9Nn_oT0un3-InS7xpgW4" name="Page-1">
    <mxGraphModel dx="1422" dy="698" grid="1" gridSize="10" guides="1" tooltips="1" connect="1" arrows="1" fold="1" page="1" pageScale="1" pageWidth="850" pageHeight="1100" math="0" shadow="0">
      <root>
        <mxCell id="0" />
        <mxCell id="1" parent="0" />
        <mxCell id="iKJsYqkl8_NyeW1-vr2k-1" value="FTS Incident/Problem Flow" style="strokeColor=#BAC8D3;fillColor=#23445D;fontSize=24;strokeWidth=2;fontFamily=Helvetica;html=1;fontColor=#FFFFFF;fontStyle=0;spacingBottom=8;spacingRight=0;spacingLeft=83;labelPosition=center;verticalLabelPosition=middle;align=center;verticalAlign=top;" parent="1" vertex="1">
          <mxGeometry x="40" y="40" width="2030" height="80" as="geometry" />
        </mxCell>
        <mxCell id="iKJsYqkl8_NyeW1-vr2k-2" value="&lt;font style=&quot;font-size: 17px;&quot;&gt;Incident&lt;/font&gt;" style="strokeColor=#BAC8D3;fillColor=#23445D;fontSize=24;strokeWidth=2;horizontal=0;fontFamily=Helvetica;html=1;fontColor=#FFFFFF;fontStyle=0" parent="1" vertex="1">
          <mxGeometry x="40" y="120" width="50" height="300" as="geometry" />
        </mxCell>
        <mxCell id="iKJsYqkl8_NyeW1-vr2k-3" value="Type1" style="strokeColor=#BAC8D3;fillColor=#5d7f99;fontSize=19;strokeWidth=2;horizontal=0;fontFamily=Helvetica;html=1;labelBackgroundColor=none;fontColor=#FFFFFF;" parent="1" vertex="1">
          <mxGeometry x="90" y="120" width="40" height="100" as="geometry" />
        </mxCell>
        <mxCell id="iKJsYqkl8_NyeW1-vr2k-4" value="v 1.0" style="strokeColor=#BAC8D3;fillColor=#5d7f99;fontSize=19;strokeWidth=2;fontFamily=Helvetica;html=1;labelBackgroundColor=none;fontColor=#FFFFFF;" parent="1" vertex="1">
          <mxGeometry x="40" y="40" width="90" height="80" as="geometry" />
        </mxCell>
        <mxCell id="iKJsYqkl8_NyeW1-vr2k-5" value="Type 2" style="strokeColor=#BAC8D3;fillColor=#5d7f99;fontSize=19;strokeWidth=2;horizontal=0;fontFamily=Helvetica;html=1;labelBackgroundColor=none;fontColor=#FFFFFF;" parent="1" vertex="1">
          <mxGeometry x="90" y="220" width="40" height="100" as="geometry" />
        </mxCell>
        <mxCell id="iKJsYqkl8_NyeW1-vr2k-6" value="Type3" style="strokeColor=#BAC8D3;fillColor=#5d7f99;fontSize=19;strokeWidth=2;horizontal=0;fontFamily=Helvetica;html=1;labelBackgroundColor=none;fontColor=#FFFFFF;" parent="1" vertex="1">
          <mxGeometry x="90" y="320" width="40" height="100" as="geometry" />
        </mxCell>
        <mxCell id="iKJsYqkl8_NyeW1-vr2k-7" value="Type2" style="strokeColor=#BAC8D3;fillColor=#5d7f99;fontSize=19;strokeWidth=2;horizontal=0;fontFamily=Helvetica;html=1;labelBackgroundColor=none;fontColor=#FFFFFF;" parent="1" vertex="1">
          <mxGeometry x="90" y="520" width="36" height="100" as="geometry" />
        </mxCell>
        <mxCell id="iKJsYqkl8_NyeW1-vr2k-8" value="Type1" style="strokeColor=#BAC8D3;fillColor=#5d7f99;fontSize=19;strokeWidth=2;horizontal=0;fontFamily=Helvetica;html=1;labelBackgroundColor=none;fontColor=#FFFFFF;" parent="1" vertex="1">
          <mxGeometry x="90" y="420" width="40" height="100" as="geometry" />
        </mxCell>
        <mxCell id="iKJsYqkl8_NyeW1-vr2k-9" value="&lt;font style=&quot;font-size: 17px;&quot;&gt;&amp;nbsp;Problem &amp;amp; Enhancement&lt;/font&gt;" style="strokeColor=#BAC8D3;fillColor=#23445D;fontSize=24;strokeWidth=2;horizontal=0;fontFamily=Helvetica;html=1;fontColor=#FFFFFF;fontStyle=0" parent="1" vertex="1">
          <mxGeometry x="40" y="420" width="50" height="200" as="geometry" />
        </mxCell>
        <mxCell id="iKJsYqkl8_NyeW1-vr2k-10" value="" style="strokeColor=#BAC8D3;fillColor=#5d7f99;fontSize=19;strokeWidth=2;horizontal=0;fontFamily=Helvetica;html=1;labelBackgroundColor=none;fontColor=#FFFFFF;" parent="1" vertex="1">
          <mxGeometry x="90" y="720" width="40" height="100" as="geometry" />
        </mxCell>
        <mxCell id="iKJsYqkl8_NyeW1-vr2k-11" value="" style="strokeColor=#BAC8D3;fillColor=#5d7f99;fontSize=19;strokeWidth=2;horizontal=0;fontFamily=Helvetica;html=1;labelBackgroundColor=none;fontColor=#FFFFFF;" parent="1" vertex="1">
          <mxGeometry x="90" y="620" width="40" height="100" as="geometry" />
        </mxCell>
        <mxCell id="iKJsYqkl8_NyeW1-vr2k-12" value="&lt;font style=&quot;font-size: 16px;&quot;&gt;Demand&lt;/font&gt;" style="strokeColor=#BAC8D3;fillColor=#23445D;fontSize=24;strokeWidth=2;horizontal=0;fontFamily=Helvetica;html=1;fontColor=#FFFFFF;fontStyle=0" parent="1" vertex="1">
          <mxGeometry x="40" y="620" width="50" height="200" as="geometry" />
        </mxCell>
        <mxCell id="iKJsYqkl8_NyeW1-vr2k-13" value="" style="strokeColor=#FFFFFF;fillColor=#BAC8D3;fontSize=18;strokeWidth=2;fontFamily=Helvetica;html=1;opacity=60;" parent="1" vertex="1">
          <mxGeometry x="130" y="120" width="646.6666666666666" height="100" as="geometry" />
        </mxCell>
        <mxCell id="iKJsYqkl8_NyeW1-vr2k-14" value="" style="strokeColor=#FFFFFF;fillColor=#BAC8D3;fontSize=18;strokeWidth=2;fontFamily=Helvetica;html=1;opacity=90;" parent="1" vertex="1">
          <mxGeometry x="130" y="220" width="646.6666666666666" height="100" as="geometry" />
        </mxCell>
        <mxCell id="iKJsYqkl8_NyeW1-vr2k-15" value="" style="strokeColor=#FFFFFF;fillColor=#BAC8D3;fontSize=18;strokeWidth=2;fontFamily=Helvetica;html=1;opacity=60;" parent="1" vertex="1">
          <mxGeometry x="130" y="320" width="646.6666666666666" height="100" as="geometry" />
        </mxCell>
        <mxCell id="iKJsYqkl8_NyeW1-vr2k-16" value="" style="strokeColor=#FFFFFF;fillColor=#BAC8D3;fontSize=18;strokeWidth=2;fontFamily=Helvetica;html=1;opacity=90;" parent="1" vertex="1">
          <mxGeometry x="130" y="420" width="646.6666666666666" height="100" as="geometry" />
        </mxCell>
        <mxCell id="iKJsYqkl8_NyeW1-vr2k-17" value="" style="strokeColor=#FFFFFF;fillColor=#BAC8D3;fontSize=18;strokeWidth=2;fontFamily=Helvetica;html=1;opacity=60;" parent="1" vertex="1">
          <mxGeometry x="130" y="520" width="646.6666666666666" height="100" as="geometry" />
        </mxCell>
        <mxCell id="iKJsYqkl8_NyeW1-vr2k-18" value="" style="strokeColor=#FFFFFF;fillColor=#BAC8D3;fontSize=18;strokeWidth=2;fontFamily=Helvetica;html=1;opacity=90;" parent="1" vertex="1">
          <mxGeometry x="130" y="620" width="646.6666666666666" height="100" as="geometry" />
        </mxCell>
        <mxCell id="iKJsYqkl8_NyeW1-vr2k-19" value="" style="strokeColor=#FFFFFF;fillColor=#BAC8D3;fontSize=18;strokeWidth=2;fontFamily=Helvetica;html=1;opacity=60;" parent="1" vertex="1">
          <mxGeometry x="130" y="720" width="646.6666666666666" height="100" as="geometry" />
        </mxCell>
        <mxCell id="iKJsYqkl8_NyeW1-vr2k-20" value="" style="strokeColor=#FFFFFF;fillColor=#BAC8D3;fontSize=18;strokeWidth=2;fontFamily=Helvetica;html=1;opacity=60;" parent="1" vertex="1">
          <mxGeometry x="776.6666666666666" y="120" width="647" height="100" as="geometry" />
        </mxCell>
        <mxCell id="iKJsYqkl8_NyeW1-vr2k-21" value="" style="strokeColor=#FFFFFF;fillColor=#BAC8D3;fontSize=18;strokeWidth=2;fontFamily=Helvetica;html=1;opacity=90;" parent="1" vertex="1">
          <mxGeometry x="776.6666666666666" y="220" width="646.6666666666666" height="100" as="geometry" />
        </mxCell>
        <mxCell id="iKJsYqkl8_NyeW1-vr2k-22" value="" style="strokeColor=#FFFFFF;fillColor=#BAC8D3;fontSize=18;strokeWidth=2;fontFamily=Helvetica;html=1;opacity=60;" parent="1" vertex="1">
          <mxGeometry x="776.6666666666666" y="320" width="646.6666666666666" height="100" as="geometry" />
        </mxCell>
        <mxCell id="iKJsYqkl8_NyeW1-vr2k-23" value="" style="strokeColor=#FFFFFF;fillColor=#BAC8D3;fontSize=18;strokeWidth=2;fontFamily=Helvetica;html=1;opacity=90;" parent="1" vertex="1">
          <mxGeometry x="776.6666666666666" y="420" width="646.6666666666666" height="100" as="geometry" />
        </mxCell>
        <mxCell id="iKJsYqkl8_NyeW1-vr2k-24" value="" style="strokeColor=#FFFFFF;fillColor=#BAC8D3;fontSize=18;strokeWidth=2;fontFamily=Helvetica;html=1;opacity=60;" parent="1" vertex="1">
          <mxGeometry x="776.6666666666666" y="520" width="646.6666666666666" height="100" as="geometry" />
        </mxCell>
        <mxCell id="iKJsYqkl8_NyeW1-vr2k-25" value="" style="strokeColor=#FFFFFF;fillColor=#BAC8D3;fontSize=18;strokeWidth=2;fontFamily=Helvetica;html=1;opacity=90;" parent="1" vertex="1">
          <mxGeometry x="776.6666666666666" y="620" width="646.6666666666666" height="100" as="geometry" />
        </mxCell>
        <mxCell id="iKJsYqkl8_NyeW1-vr2k-26" value="" style="strokeColor=#FFFFFF;fillColor=#BAC8D3;fontSize=18;strokeWidth=2;fontFamily=Helvetica;html=1;opacity=60;fontStyle=4" parent="1" vertex="1">
          <mxGeometry x="776.6666666666666" y="720" width="646.6666666666666" height="100" as="geometry" />
        </mxCell>
        <mxCell id="iKJsYqkl8_NyeW1-vr2k-27" value="" style="strokeColor=#FFFFFF;fillColor=#BAC8D3;fontSize=18;strokeWidth=2;fontFamily=Helvetica;html=1;opacity=60;" parent="1" vertex="1">
          <mxGeometry x="1423.3333333333333" y="120" width="647" height="100" as="geometry" />
        </mxCell>
        <mxCell id="iKJsYqkl8_NyeW1-vr2k-28" value="" style="strokeColor=#FFFFFF;fillColor=#BAC8D3;fontSize=18;strokeWidth=2;fontFamily=Helvetica;html=1;opacity=90;" parent="1" vertex="1">
          <mxGeometry x="1423.3333333333333" y="220" width="646.6666666666666" height="100" as="geometry" />
        </mxCell>
        <mxCell id="iKJsYqkl8_NyeW1-vr2k-29" value="" style="strokeColor=#FFFFFF;fillColor=#BAC8D3;fontSize=18;strokeWidth=2;fontFamily=Helvetica;html=1;opacity=60;" parent="1" vertex="1">
          <mxGeometry x="1423.3333333333333" y="320" width="646.6666666666666" height="100" as="geometry" />
        </mxCell>
        <mxCell id="iKJsYqkl8_NyeW1-vr2k-30" value="" style="strokeColor=#FFFFFF;fillColor=#BAC8D3;fontSize=18;strokeWidth=2;fontFamily=Helvetica;html=1;opacity=90;" parent="1" vertex="1">
          <mxGeometry x="1423.3333333333333" y="420" width="646.6666666666666" height="100" as="geometry" />
        </mxCell>
        <mxCell id="iKJsYqkl8_NyeW1-vr2k-31" value="" style="strokeColor=#FFFFFF;fillColor=#BAC8D3;fontSize=18;strokeWidth=2;fontFamily=Helvetica;html=1;opacity=60;" parent="1" vertex="1">
          <mxGeometry x="1423.3333333333333" y="520" width="646.6666666666666" height="100" as="geometry" />
        </mxCell>
        <mxCell id="iKJsYqkl8_NyeW1-vr2k-32" value="" style="strokeColor=#FFFFFF;fillColor=#BAC8D3;fontSize=18;strokeWidth=2;fontFamily=Helvetica;html=1;opacity=90;" parent="1" vertex="1">
          <mxGeometry x="1423.3333333333333" y="620" width="646.6666666666666" height="100" as="geometry" />
        </mxCell>
        <mxCell id="iKJsYqkl8_NyeW1-vr2k-33" value="" style="strokeColor=#FFFFFF;fillColor=#BAC8D3;fontSize=18;strokeWidth=2;fontFamily=Helvetica;html=1;opacity=60;fontStyle=4" parent="1" vertex="1">
          <mxGeometry x="1423.3333333333333" y="720" width="646.6666666666666" height="100" as="geometry" />
        </mxCell>
        <mxCell id="iKJsYqkl8_NyeW1-vr2k-34" style="edgeStyle=orthogonalEdgeStyle;rounded=1;jumpStyle=none;html=1;exitX=1;exitY=0.5;entryX=0;entryY=0.5;labelBackgroundColor=#ffffff;startArrow=none;startFill=0;endArrow=classic;jettySize=auto;orthogonalLoop=1;strokeColor=#0C343D;strokeWidth=3;fontFamily=Helvetica;fontSize=11;fontColor=#000000;" parent="1" source="iKJsYqkl8_NyeW1-vr2k-35" target="iKJsYqkl8_NyeW1-vr2k-37" edge="1">
          <mxGeometry relative="1" as="geometry">
            <Array as="points">
              <mxPoint x="308" y="170" />
              <mxPoint x="308" y="370" />
            </Array>
          </mxGeometry>
        </mxCell>
        <mxCell id="iKJsYqkl8_NyeW1-vr2k-35" value="&lt;b style=&quot;font-size: 16px;&quot;&gt;&lt;font color=&quot;#ffffff&quot; style=&quot;font-size: 16px;&quot;&gt;Error Reporting&lt;/font&gt;&lt;/b&gt;" style="rounded=1;fillColor=#23445D;strokeColor=none;strokeWidth=2;fontFamily=Helvetica;html=1;gradientColor=none;fontSize=16;" parent="1" vertex="1">
          <mxGeometry x="156.39455782312928" y="145" width="127" height="50" as="geometry" />
        </mxCell>
        <mxCell id="iKJsYqkl8_NyeW1-vr2k-36" value="&lt;b&gt;&lt;font style=&quot;font-size: 13px;&quot; color=&quot;#ffffff&quot;&gt;SLA Bound Incident&lt;/font&gt;&lt;/b&gt;" style="rounded=1;fillColor=#23445D;strokeColor=none;strokeWidth=2;fontFamily=Helvetica;html=1;gradientColor=none;" parent="1" vertex="1">
          <mxGeometry x="601.9047619047619" y="145" width="127" height="50" as="geometry" />
        </mxCell>
        <mxCell id="iKJsYqkl8_NyeW1-vr2k-37" value="&lt;font size=&quot;1&quot; color=&quot;#ffffff&quot;&gt;&lt;b style=&quot;font-size: 16px;&quot;&gt;User Impact&lt;/b&gt;&lt;/font&gt;" style="rounded=1;fillColor=#23445D;strokeColor=none;strokeWidth=2;fontFamily=Helvetica;html=1;gradientColor=none;" parent="1" vertex="1">
          <mxGeometry x="364.35374149659856" y="345" width="127" height="50" as="geometry" />
        </mxCell>
        <mxCell id="iKJsYqkl8_NyeW1-vr2k-38" value="&lt;b style=&quot;font-size: 14px;&quot;&gt;&lt;font style=&quot;font-size: 14px;&quot; color=&quot;#FFFFFF&quot;&gt;Problem&lt;/font&gt;&lt;/b&gt;" style="rounded=1;fillColor=#23445D;strokeColor=none;strokeWidth=2;fontFamily=Helvetica;html=1;gradientColor=none;" parent="1" vertex="1">
          <mxGeometry x="601.9047619047619" y="445" width="127" height="50" as="geometry" />
        </mxCell>
        <mxCell id="iKJsYqkl8_NyeW1-vr2k-41" value="&lt;font size=&quot;1&quot; color=&quot;#ffffff&quot;&gt;&lt;b style=&quot;font-size: 16px;&quot;&gt;DPO Discussion&lt;/b&gt;&lt;/font&gt;" style="rounded=1;fillColor=#23445D;strokeColor=none;strokeWidth=2;fontFamily=Helvetica;html=1;gradientColor=none;" parent="1" vertex="1">
          <mxGeometry x="246.00374149659856" y="545" width="127" height="50" as="geometry" />
        </mxCell>
        <mxCell id="iKJsYqkl8_NyeW1-vr2k-42" value="&lt;b&gt;&lt;font style=&quot;font-size: 16px;&quot; color=&quot;#ffffff&quot;&gt;Workaround&lt;/font&gt;&lt;/b&gt;" style="rounded=1;fillColor=#23445D;strokeColor=none;strokeWidth=2;fontFamily=Helvetica;html=1;gradientColor=none;" parent="1" vertex="1">
          <mxGeometry x="1047.4149659863945" y="245" width="127" height="50" as="geometry" />
        </mxCell>
        <mxCell id="iKJsYqkl8_NyeW1-vr2k-43" value="&lt;b&gt;&lt;font style=&quot;font-size: 16px;&quot; color=&quot;#ffffff&quot;&gt;Hotfix&lt;/font&gt;&lt;/b&gt;" style="rounded=1;fillColor=#23445D;strokeColor=none;strokeWidth=2;fontFamily=Helvetica;html=1;gradientColor=none;" parent="1" vertex="1">
          <mxGeometry x="1258.5714285714284" y="145" width="127" height="50" as="geometry" />
        </mxCell>
        <mxCell id="iKJsYqkl8_NyeW1-vr2k-44" value="&lt;font size=&quot;1&quot; style=&quot;&quot; color=&quot;#ffffff&quot;&gt;&lt;b style=&quot;font-size: 15px;&quot;&gt;Resolved/Closed&lt;/b&gt;&lt;/font&gt;" style="rounded=1;fillColor=#23445D;strokeColor=none;strokeWidth=2;gradientColor=none;fontFamily=Helvetica;html=1;" parent="1" vertex="1">
          <mxGeometry x="1915.2380952380954" y="645" width="127" height="50" as="geometry" />
        </mxCell>
        <mxCell id="iKJsYqkl8_NyeW1-vr2k-45" value="&lt;font color=&quot;#FFFFFF&quot;&gt;&lt;b&gt;&lt;font style=&quot;font-size: 18px;&quot;&gt;Scrumban&lt;/font&gt;&lt;/b&gt;&lt;/font&gt;" style="rounded=1;fillColor=#23445D;strokeColor=none;strokeWidth=2;fontFamily=Helvetica;html=1;gradientColor=none;" parent="1" vertex="1">
          <mxGeometry x="1047.4149659863945" y="445" width="127" height="50" as="geometry" />
        </mxCell>
        <mxCell id="iKJsYqkl8_NyeW1-vr2k-46" value="&lt;font style=&quot;font-size: 16px;&quot; color=&quot;#ffffff&quot;&gt;&lt;b&gt;Backlog&lt;/b&gt;&lt;/font&gt;" style="rounded=1;fillColor=#23445D;strokeColor=none;strokeWidth=2;fontFamily=Helvetica;html=1;gradientColor=none;" parent="1" vertex="1">
          <mxGeometry x="1047.4149659863945" y="745" width="127" height="50" as="geometry" />
        </mxCell>
        <mxCell id="iKJsYqkl8_NyeW1-vr2k-47" value="&lt;font style=&quot;font-size: 16px;&quot; color=&quot;#ffffff&quot;&gt;&lt;b&gt;FTS Backlog&lt;br&gt;&lt;/b&gt;&lt;/font&gt;" style="rounded=1;fillColor=#23445D;strokeColor=none;strokeWidth=2;fontFamily=Helvetica;html=1;gradientColor=none;" parent="1" vertex="1">
          <mxGeometry x="826.2585034013605" y="645" width="127" height="50" as="geometry" />
        </mxCell>
        <mxCell id="iKJsYqkl8_NyeW1-vr2k-48" value="&lt;font style=&quot;font-size: 16px;&quot; color=&quot;#ffffff&quot;&gt;&lt;b&gt;User Stories&lt;/b&gt;&lt;/font&gt;" style="rounded=1;fillColor=#23445D;strokeColor=none;strokeWidth=2;fontFamily=Helvetica;html=1;gradientColor=none;" parent="1" vertex="1">
          <mxGeometry x="1047.4149659863945" y="645" width="127" height="50" as="geometry" />
        </mxCell>
        <mxCell id="iKJsYqkl8_NyeW1-vr2k-49" value="&lt;font style=&quot;font-size: 16px;&quot; color=&quot;#ffffff&quot;&gt;&lt;b&gt;FTS Backlog&lt;br&gt;&lt;/b&gt;&lt;/font&gt;" style="rounded=1;fillColor=#23445D;strokeColor=none;strokeWidth=2;fontFamily=Helvetica;html=1;gradientColor=none;" parent="1" vertex="1">
          <mxGeometry x="826.2585034013605" y="445" width="127" height="50" as="geometry" />
        </mxCell>
        <mxCell id="iKJsYqkl8_NyeW1-vr2k-50" value="&lt;font color=&quot;#FFFFFF&quot;&gt;&lt;b&gt;&lt;font style=&quot;font-size: 18px;&quot;&gt;Code Changes&lt;/font&gt;&lt;/b&gt;&lt;/font&gt;" style="rounded=1;fillColor=#23445D;strokeColor=none;strokeWidth=2;fontFamily=Helvetica;html=1;gradientColor=none;" parent="1" vertex="1">
          <mxGeometry x="1258.5714285714284" y="345" width="127" height="50" as="geometry" />
        </mxCell>
        <mxCell id="iKJsYqkl8_NyeW1-vr2k-51" value="&lt;font size=&quot;1&quot; color=&quot;#ffffff&quot;&gt;&lt;b style=&quot;font-size: 16px;&quot;&gt;UAT validation&amp;nbsp;&lt;/b&gt;&lt;/font&gt;" style="rounded=1;fillColor=#23445D;strokeColor=none;strokeWidth=2;gradientColor=none;fontFamily=Helvetica;html=1;" parent="1" vertex="1">
          <mxGeometry x="1472.9251700680272" y="545" width="127" height="50" as="geometry" />
        </mxCell>
        <mxCell id="iKJsYqkl8_NyeW1-vr2k-52" value="&lt;span style=&quot;color: rgb(255, 255, 255);&quot;&gt;&lt;font style=&quot;font-size: 13px;&quot;&gt;Deploy Code Changes&lt;/font&gt;&lt;/span&gt;" style="rounded=1;fillColor=#23445D;strokeColor=none;strokeWidth=2;gradientColor=none;fontFamily=Helvetica;html=1;" parent="1" vertex="1">
          <mxGeometry x="1694.0816326530612" y="545" width="127" height="50" as="geometry" />
        </mxCell>
        <mxCell id="iKJsYqkl8_NyeW1-vr2k-53" value="&lt;font size=&quot;1&quot; color=&quot;#ffffff&quot;&gt;&lt;b style=&quot;font-size: 16px;&quot;&gt;Unit Testing&lt;/b&gt;&lt;/font&gt;" style="rounded=1;fillColor=#23445D;strokeColor=none;strokeWidth=2;gradientColor=none;fontFamily=Helvetica;html=1;" parent="1" vertex="1">
          <mxGeometry x="1459.7278911564624" y="245" width="127" height="50" as="geometry" />
        </mxCell>
        <mxCell id="iKJsYqkl8_NyeW1-vr2k-54" value="&lt;b style=&quot;color: rgb(255, 255, 255);&quot;&gt;&lt;font style=&quot;font-size: 16px;&quot;&gt;UAT validation&amp;nbsp;&lt;/font&gt;&lt;/b&gt;" style="rounded=1;fillColor=#23445D;strokeColor=none;strokeWidth=2;gradientColor=none;fontFamily=Helvetica;html=1;" parent="1" vertex="1">
          <mxGeometry x="1472.9251700680272" y="645" width="127" height="50" as="geometry" />
        </mxCell>
        <mxCell id="iKJsYqkl8_NyeW1-vr2k-55" value="&lt;span style=&quot;color: rgb(255, 255, 255);&quot;&gt;&lt;font style=&quot;font-size: 13px;&quot;&gt;Deploy Code Changes&lt;/font&gt;&lt;/span&gt;" style="rounded=1;fillColor=#23445D;strokeColor=none;strokeWidth=2;gradientColor=none;fontFamily=Helvetica;html=1;" parent="1" vertex="1">
          <mxGeometry x="1694.0816326530612" y="745" width="127" height="50" as="geometry" />
        </mxCell>
        <mxCell id="iKJsYqkl8_NyeW1-vr2k-56" value="&lt;font style=&quot;font-size: 13px;&quot; color=&quot;#ffffff&quot;&gt;Deploy Code Changes&lt;/font&gt;" style="rounded=1;fillColor=#23445D;strokeColor=none;strokeWidth=2;gradientColor=none;fontFamily=Helvetica;html=1;" parent="1" vertex="1">
          <mxGeometry x="1694.0816326530612" y="145" width="127" height="50" as="geometry" />
        </mxCell>
        <mxCell id="iKJsYqkl8_NyeW1-vr2k-58" value="" style="edgeStyle=elbowEdgeStyle;elbow=horizontal;strokeWidth=3;strokeColor=#0C343D;fontFamily=Helvetica;html=1;" parent="1" source="iKJsYqkl8_NyeW1-vr2k-35" target="iKJsYqkl8_NyeW1-vr2k-40" edge="1">
          <mxGeometry x="-114" y="-810.5" width="131.97278911564624" height="100" as="geometry">
            <mxPoint x="-107.55102040816325" y="120" as="sourcePoint" />
            <mxPoint x="24.42176870748301" y="20" as="targetPoint" />
            <Array as="points">
              <mxPoint x="308" y="439.5" />
              <mxPoint x="308" y="292" />
            </Array>
          </mxGeometry>
        </mxCell>
        <mxCell id="iKJsYqkl8_NyeW1-vr2k-59" value="" style="edgeStyle=elbowEdgeStyle;elbow=horizontal;strokeWidth=3;strokeColor=#0C343D;fontFamily=Helvetica;html=1;" parent="1" source="iKJsYqkl8_NyeW1-vr2k-37" target="iKJsYqkl8_NyeW1-vr2k-36" edge="1">
          <mxGeometry x="-107.55102040816325" y="20" width="131.97278911564624" height="100" as="geometry">
            <mxPoint x="-107.55102040816325" y="120" as="sourcePoint" />
            <mxPoint x="24.42176870748301" y="20" as="targetPoint" />
          </mxGeometry>
        </mxCell>
        <mxCell id="iKJsYqkl8_NyeW1-vr2k-61" value="" style="edgeStyle=elbowEdgeStyle;elbow=horizontal;strokeWidth=3;strokeColor=#0C343D;fontFamily=Helvetica;html=1;startArrow=none;" parent="1" source="iKJsYqkl8_NyeW1-vr2k-40" target="iKJsYqkl8_NyeW1-vr2k-38" edge="1">
          <mxGeometry x="-107.55102040816325" y="20" width="131.97278911564624" height="100" as="geometry">
            <mxPoint x="-107.55102040816325" y="120" as="sourcePoint" />
            <mxPoint x="24.42176870748301" y="20" as="targetPoint" />
          </mxGeometry>
        </mxCell>
        <mxCell id="iKJsYqkl8_NyeW1-vr2k-64" value="" style="edgeStyle=elbowEdgeStyle;elbow=horizontal;strokeWidth=3;strokeColor=#0C343D;fontFamily=Helvetica;html=1;" parent="1" source="iKJsYqkl8_NyeW1-vr2k-36" target="iKJsYqkl8_NyeW1-vr2k-42" edge="1">
          <mxGeometry x="-107.55102040816325" y="20" width="131.97278911564624" height="100" as="geometry">
            <mxPoint x="-107.55102040816325" y="120" as="sourcePoint" />
            <mxPoint x="24.42176870748301" y="20" as="targetPoint" />
          </mxGeometry>
        </mxCell>
        <mxCell id="iKJsYqkl8_NyeW1-vr2k-65" value="" style="edgeStyle=elbowEdgeStyle;elbow=horizontal;strokeWidth=3;strokeColor=#0C343D;fontFamily=Helvetica;html=1;" parent="1" source="iKJsYqkl8_NyeW1-vr2k-38" target="iKJsYqkl8_NyeW1-vr2k-49" edge="1">
          <mxGeometry x="-107.55102040816325" y="20" width="131.97278911564624" height="100" as="geometry">
            <mxPoint x="-107.55102040816325" y="120" as="sourcePoint" />
            <mxPoint x="24.42176870748301" y="20" as="targetPoint" />
          </mxGeometry>
        </mxCell>
        <mxCell id="iKJsYqkl8_NyeW1-vr2k-66" value="" style="edgeStyle=elbowEdgeStyle;elbow=horizontal;strokeWidth=3;strokeColor=#0C343D;fontFamily=Helvetica;html=1;" parent="1" source="iKJsYqkl8_NyeW1-vr2k-49" target="iKJsYqkl8_NyeW1-vr2k-45" edge="1">
          <mxGeometry x="-107.55102040816325" y="20" width="131.97278911564624" height="100" as="geometry">
            <mxPoint x="-107.55102040816325" y="120" as="sourcePoint" />
            <mxPoint x="24.42176870748301" y="20" as="targetPoint" />
          </mxGeometry>
        </mxCell>
        <mxCell id="iKJsYqkl8_NyeW1-vr2k-67" value="" style="edgeStyle=elbowEdgeStyle;elbow=horizontal;strokeWidth=3;strokeColor=#0C343D;fontFamily=Helvetica;html=1;" parent="1" source="iKJsYqkl8_NyeW1-vr2k-36" target="iKJsYqkl8_NyeW1-vr2k-43" edge="1">
          <mxGeometry x="-107.55102040816325" y="20" width="131.97278911564624" height="100" as="geometry">
            <mxPoint x="-107.55102040816325" y="120" as="sourcePoint" />
            <mxPoint x="24.42176870748301" y="20" as="targetPoint" />
          </mxGeometry>
        </mxCell>
        <mxCell id="iKJsYqkl8_NyeW1-vr2k-68" value="" style="edgeStyle=elbowEdgeStyle;elbow=horizontal;strokeWidth=3;strokeColor=#0C343D;fontFamily=Helvetica;html=1;" parent="1" target="iKJsYqkl8_NyeW1-vr2k-47" edge="1">
          <mxGeometry x="-107.55102040816325" y="20" width="131.97278911564624" height="100" as="geometry">
            <mxPoint x="728.9047619047619" y="570" as="sourcePoint" />
            <mxPoint x="24.42176870748301" y="20" as="targetPoint" />
            <Array as="points">
              <mxPoint x="763.4693877551019" y="620" />
            </Array>
          </mxGeometry>
        </mxCell>
        <mxCell id="iKJsYqkl8_NyeW1-vr2k-69" value="" style="edgeStyle=elbowEdgeStyle;elbow=horizontal;strokeWidth=3;strokeColor=#0C343D;fontFamily=Helvetica;html=1;" parent="1" source="iKJsYqkl8_NyeW1-vr2k-47" target="iKJsYqkl8_NyeW1-vr2k-48" edge="1">
          <mxGeometry x="-107.55102040816325" y="20" width="131.97278911564624" height="100" as="geometry">
            <mxPoint x="-107.55102040816325" y="120" as="sourcePoint" />
            <mxPoint x="24.42176870748301" y="20" as="targetPoint" />
          </mxGeometry>
        </mxCell>
        <mxCell id="iKJsYqkl8_NyeW1-vr2k-70" value="" style="edgeStyle=elbowEdgeStyle;elbow=horizontal;strokeWidth=3;strokeColor=#0C343D;fontFamily=Helvetica;html=1;" parent="1" source="iKJsYqkl8_NyeW1-vr2k-47" target="iKJsYqkl8_NyeW1-vr2k-46" edge="1">
          <mxGeometry x="-107.55102040816325" y="20" width="131.97278911564624" height="100" as="geometry">
            <mxPoint x="-107.55102040816325" y="120" as="sourcePoint" />
            <mxPoint x="24.42176870748301" y="20" as="targetPoint" />
          </mxGeometry>
        </mxCell>
        <mxCell id="iKJsYqkl8_NyeW1-vr2k-71" value="" style="edgeStyle=elbowEdgeStyle;elbow=horizontal;strokeWidth=3;strokeColor=#0C343D;fontFamily=Helvetica;html=1;" parent="1" source="iKJsYqkl8_NyeW1-vr2k-46" target="iKJsYqkl8_NyeW1-vr2k-55" edge="1">
          <mxGeometry x="-107.55102040816325" y="20" width="131.97278911564624" height="100" as="geometry">
            <mxPoint x="-107.55102040816325" y="120" as="sourcePoint" />
            <mxPoint x="24.42176870748301" y="20" as="targetPoint" />
          </mxGeometry>
        </mxCell>
        <mxCell id="iKJsYqkl8_NyeW1-vr2k-72" value="" style="edgeStyle=elbowEdgeStyle;elbow=horizontal;strokeWidth=3;strokeColor=#0C343D;fontFamily=Helvetica;html=1;" parent="1" source="iKJsYqkl8_NyeW1-vr2k-55" target="iKJsYqkl8_NyeW1-vr2k-44" edge="1">
          <mxGeometry x="-107.55102040816325" y="20" width="131.97278911564624" height="100" as="geometry">
            <mxPoint x="-107.55102040816325" y="120" as="sourcePoint" />
            <mxPoint x="24.42176870748301" y="20" as="targetPoint" />
          </mxGeometry>
        </mxCell>
        <mxCell id="iKJsYqkl8_NyeW1-vr2k-73" value="" style="edgeStyle=elbowEdgeStyle;elbow=horizontal;strokeWidth=3;strokeColor=#0C343D;fontFamily=Helvetica;html=1;" parent="1" source="iKJsYqkl8_NyeW1-vr2k-53" target="iKJsYqkl8_NyeW1-vr2k-44" edge="1">
          <mxGeometry x="-107.55102040816325" y="20" width="131.97278911564624" height="100" as="geometry">
            <mxPoint x="-107.55102040816325" y="120" as="sourcePoint" />
            <mxPoint x="24.42176870748301" y="20" as="targetPoint" />
            <Array as="points">
              <mxPoint x="1662" y="470" />
            </Array>
          </mxGeometry>
        </mxCell>
        <mxCell id="iKJsYqkl8_NyeW1-vr2k-74" value="" style="edgeStyle=elbowEdgeStyle;elbow=horizontal;strokeWidth=3;strokeColor=#0C343D;fontFamily=Helvetica;html=1;" parent="1" source="iKJsYqkl8_NyeW1-vr2k-54" target="iKJsYqkl8_NyeW1-vr2k-55" edge="1">
          <mxGeometry x="-107.55102040816325" y="20" width="131.97278911564624" height="100" as="geometry">
            <mxPoint x="-107.55102040816325" y="120" as="sourcePoint" />
            <mxPoint x="24.42176870748301" y="20" as="targetPoint" />
          </mxGeometry>
        </mxCell>
        <mxCell id="iKJsYqkl8_NyeW1-vr2k-75" value="" style="edgeStyle=elbowEdgeStyle;elbow=horizontal;strokeWidth=3;strokeColor=#0C343D;fontFamily=Helvetica;html=1;" parent="1" source="iKJsYqkl8_NyeW1-vr2k-48" target="iKJsYqkl8_NyeW1-vr2k-51" edge="1">
          <mxGeometry x="-107.55102040816325" y="20" width="131.97278911564624" height="100" as="geometry">
            <mxPoint x="-107.55102040816325" y="120" as="sourcePoint" />
            <mxPoint x="24.42176870748301" y="20" as="targetPoint" />
          </mxGeometry>
        </mxCell>
        <mxCell id="iKJsYqkl8_NyeW1-vr2k-76" value="" style="edgeStyle=elbowEdgeStyle;elbow=horizontal;strokeWidth=3;strokeColor=#0C343D;fontFamily=Helvetica;html=1;" parent="1" source="iKJsYqkl8_NyeW1-vr2k-48" target="iKJsYqkl8_NyeW1-vr2k-54" edge="1">
          <mxGeometry x="-107.55102040816325" y="20" width="131.97278911564624" height="100" as="geometry">
            <mxPoint x="-107.55102040816325" y="120" as="sourcePoint" />
            <mxPoint x="24.42176870748301" y="20" as="targetPoint" />
          </mxGeometry>
        </mxCell>
        <mxCell id="iKJsYqkl8_NyeW1-vr2k-77" value="" style="edgeStyle=elbowEdgeStyle;elbow=horizontal;strokeWidth=3;strokeColor=#0C343D;fontFamily=Helvetica;html=1;" parent="1" source="iKJsYqkl8_NyeW1-vr2k-45" target="iKJsYqkl8_NyeW1-vr2k-50" edge="1">
          <mxGeometry x="-107.55102040816325" y="20" width="131.97278911564624" height="100" as="geometry">
            <mxPoint x="-107.55102040816325" y="120" as="sourcePoint" />
            <mxPoint x="24.42176870748301" y="20" as="targetPoint" />
          </mxGeometry>
        </mxCell>
        <mxCell id="iKJsYqkl8_NyeW1-vr2k-78" value="" style="edgeStyle=elbowEdgeStyle;elbow=horizontal;strokeWidth=3;strokeColor=#0C343D;fontFamily=Helvetica;html=1;" parent="1" source="iKJsYqkl8_NyeW1-vr2k-42" target="iKJsYqkl8_NyeW1-vr2k-53" edge="1">
          <mxGeometry x="-107.55102040816325" y="20" width="131.97278911564624" height="100" as="geometry">
            <mxPoint x="-107.55102040816325" y="120" as="sourcePoint" />
            <mxPoint x="24.42176870748301" y="20" as="targetPoint" />
          </mxGeometry>
        </mxCell>
        <mxCell id="iKJsYqkl8_NyeW1-vr2k-79" value="" style="edgeStyle=elbowEdgeStyle;elbow=horizontal;strokeWidth=3;strokeColor=#0C343D;fontFamily=Helvetica;html=1;" parent="1" source="iKJsYqkl8_NyeW1-vr2k-43" target="iKJsYqkl8_NyeW1-vr2k-53" edge="1">
          <mxGeometry x="-107.55102040816325" y="20" width="131.97278911564624" height="100" as="geometry">
            <mxPoint x="-107.55102040816325" y="120" as="sourcePoint" />
            <mxPoint x="24.42176870748301" y="20" as="targetPoint" />
            <Array as="points">
              <mxPoint x="1410.1360544217687" y="220" />
            </Array>
          </mxGeometry>
        </mxCell>
        <mxCell id="iKJsYqkl8_NyeW1-vr2k-80" value="" style="edgeStyle=elbowEdgeStyle;elbow=horizontal;strokeWidth=3;strokeColor=#0C343D;fontFamily=Helvetica;html=1;" parent="1" source="iKJsYqkl8_NyeW1-vr2k-43" target="iKJsYqkl8_NyeW1-vr2k-56" edge="1">
          <mxGeometry x="-107.55102040816325" y="20" width="131.97278911564624" height="100" as="geometry">
            <mxPoint x="-107.55102040816325" y="120" as="sourcePoint" />
            <mxPoint x="24.42176870748301" y="20" as="targetPoint" />
          </mxGeometry>
        </mxCell>
        <mxCell id="iKJsYqkl8_NyeW1-vr2k-81" value="" style="edgeStyle=elbowEdgeStyle;elbow=horizontal;strokeWidth=3;strokeColor=#0C343D;fontFamily=Helvetica;html=1;" parent="1" source="iKJsYqkl8_NyeW1-vr2k-56" target="iKJsYqkl8_NyeW1-vr2k-44" edge="1">
          <mxGeometry x="-107.55102040816325" y="20" width="131.97278911564624" height="100" as="geometry">
            <mxPoint x="-107.55102040816325" y="120" as="sourcePoint" />
            <mxPoint x="24.42176870748301" y="20" as="targetPoint" />
          </mxGeometry>
        </mxCell>
        <mxCell id="iKJsYqkl8_NyeW1-vr2k-82" value="" style="edgeStyle=elbowEdgeStyle;elbow=horizontal;strokeWidth=3;strokeColor=#0C343D;fontFamily=Helvetica;html=1;" parent="1" source="iKJsYqkl8_NyeW1-vr2k-52" target="iKJsYqkl8_NyeW1-vr2k-44" edge="1">
          <mxGeometry x="-107.55102040816325" y="20" width="131.97278911564624" height="100" as="geometry">
            <mxPoint x="-107.55102040816325" y="120" as="sourcePoint" />
            <mxPoint x="24.42176870748301" y="20" as="targetPoint" />
          </mxGeometry>
        </mxCell>
        <mxCell id="iKJsYqkl8_NyeW1-vr2k-83" value="" style="edgeStyle=elbowEdgeStyle;elbow=horizontal;strokeWidth=3;strokeColor=#0C343D;fontFamily=Helvetica;html=1;" parent="1" source="iKJsYqkl8_NyeW1-vr2k-51" target="iKJsYqkl8_NyeW1-vr2k-52" edge="1">
          <mxGeometry x="-107.55102040816325" y="20" width="131.97278911564624" height="100" as="geometry">
            <mxPoint x="-107.55102040816325" y="120" as="sourcePoint" />
            <mxPoint x="24.42176870748301" y="20" as="targetPoint" />
          </mxGeometry>
        </mxCell>
        <mxCell id="iKJsYqkl8_NyeW1-vr2k-84" value="" style="edgeStyle=elbowEdgeStyle;elbow=horizontal;strokeWidth=3;strokeColor=#0C343D;fontFamily=Helvetica;html=1;" parent="1" source="iKJsYqkl8_NyeW1-vr2k-50" target="iKJsYqkl8_NyeW1-vr2k-51" edge="1">
          <mxGeometry x="-107.55102040816325" y="20" width="131.97278911564624" height="100" as="geometry">
            <mxPoint x="-107.55102040816325" y="120" as="sourcePoint" />
            <mxPoint x="24.42176870748301" y="20" as="targetPoint" />
            <Array as="points">
              <mxPoint x="1410.1360544217687" y="470" />
            </Array>
          </mxGeometry>
        </mxCell>
        <mxCell id="iKJsYqkl8_NyeW1-vr2k-85" value="FTS" style="group" parent="1" vertex="1" connectable="0">
          <mxGeometry x="130" y="80" width="646.6666666666666" height="40" as="geometry" />
        </mxCell>
        <mxCell id="iKJsYqkl8_NyeW1-vr2k-86" value="Reported by FTS" style="strokeColor=#BAC8D3;fillColor=#5d7f99;fontSize=19;strokeWidth=2;fontFamily=Helvetica;html=1;labelBackgroundColor=none;fontColor=#FFFFFF;" parent="iKJsYqkl8_NyeW1-vr2k-85" vertex="1">
          <mxGeometry width="646.6656362699642" height="40" as="geometry" />
        </mxCell>
        <mxCell id="iKJsYqkl8_NyeW1-vr2k-87" value="&amp;nbsp;Snow Actions" style="strokeColor=#BAC8D3;fillColor=#5d7f99;fontSize=19;strokeWidth=2;fontFamily=Helvetica;html=1;labelBackgroundColor=none;fontColor=#FFFFFF;" parent="iKJsYqkl8_NyeW1-vr2k-85" vertex="1">
          <mxGeometry x="646.6656362699642" width="646.6656362699642" height="40" as="geometry" />
        </mxCell>
        <mxCell id="iKJsYqkl8_NyeW1-vr2k-88" value="Milestone - Resolution" style="strokeColor=#BAC8D3;fillColor=#5d7f99;fontSize=19;strokeWidth=2;fontFamily=Helvetica;html=1;labelBackgroundColor=none;fontColor=#FFFFFF;" parent="iKJsYqkl8_NyeW1-vr2k-85" vertex="1">
          <mxGeometry x="1293.3312725399282" width="646.6666666666666" height="40" as="geometry" />
        </mxCell>
        <mxCell id="iKJsYqkl8_NyeW1-vr2k-89" value="&lt;b&gt;&lt;font style=&quot;font-size: 16px;&quot; color=&quot;#ffffff&quot;&gt;FTS identified&lt;/font&gt;&lt;/b&gt;" style="rounded=1;fillColor=#23445D;strokeColor=none;strokeWidth=2;fontFamily=Helvetica;html=1;gradientColor=none;" parent="1" vertex="1">
          <mxGeometry x="156.39" y="245" width="129.61" height="50" as="geometry" />
        </mxCell>
        <mxCell id="iKJsYqkl8_NyeW1-vr2k-90" style="rounded=1;jumpStyle=none;html=1;exitX=1;exitY=0.5;labelBackgroundColor=#ffffff;startArrow=none;startFill=0;endArrow=classic;jettySize=auto;orthogonalLoop=1;strokeColor=#0C343D;strokeWidth=3;fontFamily=Helvetica;fontSize=11;fontColor=#000000;" parent="1" edge="1">
          <mxGeometry relative="1" as="geometry">
            <mxPoint x="283.39455782312916" y="369.5" as="sourcePoint" />
            <mxPoint x="306" y="370" as="targetPoint" />
          </mxGeometry>
        </mxCell>
        <mxCell id="iKJsYqkl8_NyeW1-vr2k-91" value="&lt;font size=&quot;1&quot; color=&quot;#FFFFFF&quot;&gt;&lt;b style=&quot;font-size: 17px;&quot;&gt;No User Impact&lt;/b&gt;&lt;/font&gt;" style="rounded=1;fillColor=#23445D;strokeColor=none;strokeWidth=2;fontFamily=Helvetica;html=1;gradientColor=none;" parent="1" vertex="1">
          <mxGeometry x="246.00374149659865" y="445" width="127" height="50" as="geometry" />
        </mxCell>
        <mxCell id="iKJsYqkl8_NyeW1-vr2k-92" value="" style="edgeStyle=none;rounded=0;orthogonalLoop=1;jettySize=auto;html=1;fontSize=14;fontColor=#FFFFFF;" parent="1" source="iKJsYqkl8_NyeW1-vr2k-93" target="iKJsYqkl8_NyeW1-vr2k-37" edge="1">
          <mxGeometry relative="1" as="geometry" />
        </mxCell>
        <mxCell id="iKJsYqkl8_NyeW1-vr2k-93" value="&lt;b&gt;&lt;font style=&quot;font-size: 14px;&quot; color=&quot;#ffffff&quot;&gt;Frequent/Recurring&lt;/font&gt;&lt;/b&gt;" style="rounded=1;fillColor=#23445D;strokeColor=none;strokeWidth=2;fontFamily=Helvetica;html=1;gradientColor=none;" parent="1" vertex="1">
          <mxGeometry x="156.39455782312928" y="345" width="127" height="50" as="geometry" />
        </mxCell>
        <mxCell id="iKJsYqkl8_NyeW1-vr2k-94" value="" style="edgeStyle=none;rounded=1;orthogonalLoop=1;jettySize=auto;html=1;fontSize=14;fontColor=#FFFFFF;" parent="1" edge="1">
          <mxGeometry relative="1" as="geometry">
            <mxPoint x="286" y="269.5" as="sourcePoint" />
            <mxPoint x="306" y="269.5" as="targetPoint" />
          </mxGeometry>
        </mxCell>
        <mxCell id="iKJsYqkl8_NyeW1-vr2k-99" value="&lt;font color=&quot;#FFFFFF&quot;&gt;Enhancement&lt;/font&gt;" style="rounded=1;fillColor=#23445D;strokeColor=none;strokeWidth=2;fontFamily=Helvetica;html=1;gradientColor=none;" parent="1" vertex="1">
          <mxGeometry x="601.9047619047619" y="545" width="127" height="50" as="geometry" />
        </mxCell>
        <mxCell id="iKJsYqkl8_NyeW1-vr2k-40" value="&lt;b&gt;&lt;font style=&quot;font-size: 16px;&quot; color=&quot;#ffffff&quot;&gt;New Feature&lt;/font&gt;&lt;/b&gt;" style="rounded=1;fillColor=#23445D;strokeColor=none;strokeWidth=2;fontFamily=Helvetica;html=1;gradientColor=none;" parent="1" vertex="1">
          <mxGeometry x="410.00374149659854" y="545" width="127" height="50" as="geometry" />
        </mxCell>
        <mxCell id="iKJsYqkl8_NyeW1-vr2k-106" value="" style="edgeStyle=elbowEdgeStyle;elbow=horizontal;strokeWidth=3;strokeColor=#0C343D;fontFamily=Helvetica;html=1;endArrow=none;" parent="1" source="iKJsYqkl8_NyeW1-vr2k-41" target="iKJsYqkl8_NyeW1-vr2k-40" edge="1">
          <mxGeometry x="-107.55102040816325" y="20" width="131.97278911564624" height="100" as="geometry">
            <mxPoint x="373.00374149659865" y="570" as="sourcePoint" />
            <mxPoint x="601.9047619047619" y="470" as="targetPoint" />
          </mxGeometry>
        </mxCell>
        <mxCell id="iKJsYqkl8_NyeW1-vr2k-109" style="edgeStyle=orthogonalEdgeStyle;rounded=0;orthogonalLoop=1;jettySize=auto;html=1;entryX=0;entryY=0.5;entryDx=0;entryDy=0;fontSize=17;fontColor=#FFFFFF;" parent="1" source="iKJsYqkl8_NyeW1-vr2k-107" target="iKJsYqkl8_NyeW1-vr2k-108" edge="1">
          <mxGeometry relative="1" as="geometry" />
        </mxCell>
        <mxCell id="iKJsYqkl8_NyeW1-vr2k-107" value="&lt;b&gt;&lt;font style=&quot;font-size: 16px;&quot; color=&quot;#ffffff&quot;&gt;New Feature&lt;/font&gt;&lt;/b&gt;" style="rounded=1;fillColor=#23445D;strokeColor=none;strokeWidth=2;fontFamily=Helvetica;html=1;gradientColor=none;" parent="1" vertex="1">
          <mxGeometry x="246.00374149659854" y="695" width="127" height="50" as="geometry" />
        </mxCell>
        <mxCell id="iKJsYqkl8_NyeW1-vr2k-110" style="edgeStyle=orthogonalEdgeStyle;rounded=0;orthogonalLoop=1;jettySize=auto;html=1;entryX=0;entryY=0.5;entryDx=0;entryDy=0;fontSize=17;fontColor=#FFFFFF;" parent="1" source="iKJsYqkl8_NyeW1-vr2k-108" target="iKJsYqkl8_NyeW1-vr2k-46" edge="1">
          <mxGeometry relative="1" as="geometry" />
        </mxCell>
        <mxCell id="iKJsYqkl8_NyeW1-vr2k-108" value="&lt;font color=&quot;#FFFFFF&quot;&gt;Enhancement&lt;/font&gt;" style="rounded=1;fillColor=#23445D;strokeColor=none;strokeWidth=2;fontFamily=Helvetica;html=1;gradientColor=none;" parent="1" vertex="1">
          <mxGeometry x="601.9" y="695" width="128.1" height="50.43" as="geometry" />
        </mxCell>
      </root>
    </mxGraphModel>
  </diagram>
</mxfile>
